 <svg xmlns="http://www.w3.org/2000/svg" width="62" height="62" viewBox="0 0 62 62"><defs><style>.a,.b{fill:none;}.b,.d{fill-rule:evenodd;}.c{fill:#575757;}.d{fill:#ed4b7a;}</style></defs><g transform="translate(-538 -901)"><g transform="translate(315 355)"><rect class="a" width="62" height="62" transform="translate(223 546)"/></g><g transform="translate(543 906)"><path class="b" d="M0,0H53V53H0Z"/><path class="c" d="M30.5,43.542V45.75H7.312A3.312,3.312,0,0,1,4,42.437V9.313A3.313,3.313,0,0,1,7.312,6h5.521V8.208H7.312a1.1,1.1,0,0,0-1.1,1.1V42.437a1.1,1.1,0,0,0,1.1,1.1ZM45.958,28.083V17.042H8.417V14.833h39.75v13.25ZM32.708,6V8.208H19.458V6Zm6.625,0h5.521a3.313,3.313,0,0,1,3.313,3.313v3.313H45.958V9.313a1.1,1.1,0,0,0-1.1-1.1H39.333Z" transform="translate(0.417 0.625)"/><path class="d" d="M38.5,37.125h2.208v2.208H36.292V34.917H38.5Zm0,8.833a8.833,8.833,0,1,1,8.833-8.833A8.833,8.833,0,0,1,38.5,45.958Zm0-2.208a6.625,6.625,0,1,0-6.625-6.625A6.625,6.625,0,0,0,38.5,43.75ZM12,21.667h4.417v4.417H12Zm0,11.042h4.417v4.417H12ZM23.042,21.667h4.417v4.417H23.042Zm0,11.042h4.417v4.417H23.042ZM34.083,21.667H38.5v4.417H34.083ZM14.208,4h2.208v6.625H14.208ZM34.083,4h2.208v6.625H34.083Z" transform="translate(1.25 0.417)"/></g></g></svg>