<svg xmlns="http://www.w3.org/2000/svg" width="62" height="62" viewBox="0 0 62 62"><defs><style>.a,.b{fill:none;}.b{fill-rule:evenodd;}.c{fill:#575757;}.d{fill:#ed4b7a;}</style></defs><g transform="translate(-902 -901)"><g transform="translate(679 355)"><rect class="a" width="62" height="62" transform="translate(223 546)"/></g><g transform="translate(879 907)"><g transform="translate(29)"><path class="b" d="M0,0H49.1V49.1H0Z"/><path class="b" d="M0,0H49.1V49.1H0Z"/><path class="c" d="M17.58,20.809l6.851,7.212c.743.782,2.088.893,3.587.157,3.814-1.577,5.083-1.962,5.808-1.2l7.875,8.29a2.729,2.729,0,0,1-.359,3.708,13.383,13.383,0,0,1-19.6,0L7.034,23.49a15.016,15.016,0,0,1,0-20.482C8.1,1.889,9.729,1.614,10.7,2.631l7.875,8.29c.683.719.317,2.057-1.174,6.044C16.7,18.521,16.815,20,17.58,20.809Zm14.46,7.955c-.75.227-1.844.637-3.213,1.2-2.154,1.062-4.427.874-5.82-.592l-6.851-7.212a5.384,5.384,0,0,1-.576-5.939c.562-1.506.953-2.661,1.17-3.455a7.21,7.21,0,0,0,.169-.735L9.272,3.983c-.072-.076-.443-.013-.814.377a13.053,13.053,0,0,0,0,17.777L23.169,37.623a11.42,11.42,0,0,0,16.75,0c.393-.413.465-.89.359-1L32.66,28.6C32.5,28.633,32.295,28.687,32.041,28.764Z" transform="translate(2.892 1.928)"/><path class="d" d="M14.982,13.784a4.91,4.91,0,0,1,4.91,4.91.982.982,0,1,1-1.964,0,2.946,2.946,0,0,0-2.946-2.946.982.982,0,1,1,0-1.964Zm0-5.892a10.8,10.8,0,0,1,10.8,10.8.982.982,0,1,1-1.964,0,8.838,8.838,0,0,0-8.838-8.838.982.982,0,1,1,0-1.964Zm0-5.892A16.693,16.693,0,0,1,31.675,18.693a.982.982,0,1,1-1.964,0,14.73,14.73,0,0,0-14.73-14.73.982.982,0,1,1,0-1.964Z" transform="translate(13.495 1.928)"/></g></g></g></svg>